<mxfile host="65bd71144e">
    <diagram id="HIP3nbAZw_EuaXWnEj3U" name="Page-1">
        <mxGraphModel dx="1086" dy="1843" grid="1" gridSize="10" guides="1" tooltips="1" connect="1" arrows="1" fold="1" page="1" pageScale="1" pageWidth="850" pageHeight="1100" math="0" shadow="0">
            <root>
                <mxCell id="0"/>
                <mxCell id="1" parent="0"/>
                <mxCell id="18" value="http://ics2o.mths.ca" style="swimlane;whiteSpace=wrap;html=1;" parent="1" vertex="1">
                    <mxGeometry x="20" y="-10" width="782.5899999999999" height="480" as="geometry"/>
                </mxCell>
                <mxCell id="19" value="&lt;font style=&quot;font-size: 18px;&quot;&gt;Loops with JS&lt;/font&gt;" style="rounded=0;whiteSpace=wrap;html=1;" parent="18" vertex="1">
                    <mxGeometry y="20" width="760" height="60" as="geometry"/>
                </mxCell>
                <mxCell id="21" value="Enter positive integer multiplication question" style="text;html=1;align=center;verticalAlign=middle;resizable=0;points=[];autosize=1;strokeColor=none;fillColor=none;fontSize=18;" parent="18" vertex="1">
                    <mxGeometry x="10" y="80" width="370" height="40" as="geometry"/>
                </mxCell>
                <mxCell id="22" value="" style="rounded=1;whiteSpace=wrap;html=1;fontSize=18;" parent="18" vertex="1">
                    <mxGeometry x="25" y="120" width="150" height="30" as="geometry"/>
                </mxCell>
                <mxCell id="24" value="Calculate" style="rounded=1;whiteSpace=wrap;html=1;fontSize=18;" parent="18" vertex="1">
                    <mxGeometry x="20" y="180" width="120" height="45" as="geometry"/>
                </mxCell>
                <mxCell id="25" value="2x2=4" style="text;html=1;align=center;verticalAlign=middle;resizable=0;points=[];autosize=1;strokeColor=none;fillColor=none;fontSize=18;" parent="18" vertex="1">
                    <mxGeometry x="80" y="240" width="70" height="40" as="geometry"/>
                </mxCell>
            </root>
        </mxGraphModel>
    </diagram>
</mxfile>